<?xml version="1.0" encoding="UTF-8" standalone="no"?>
<!-- Created with Inkscape (http://www.inkscape.org/) -->

<svg
   width="32"
   height="32"
   viewBox="0 0 8.4666666 8.4666666"
   version="1.1"
   id="svg5"
   xmlns="http://www.w3.org/2000/svg"
   xmlns:svg="http://www.w3.org/2000/svg">
  <defs
     id="defs2" />
  <g
     id="layer2"
     style="display:inline">
    <rect
       style="fill:#1f2937;fill-opacity:1;stroke-width:0.264583"
       id="rect1122"
       width="11.234615"
       height="10.786859"
       x="-1.119391"
       y="-0.83445513" />
  </g>
  <g
     id="layer1">
    <g
       aria-label="M"
       id="text3993"
       style="font-size:7.14082px;line-height:1.25;fill:#9ca3af;stroke-width:0.178521">
      <path
         d="M 6.4148538,2.5052551 6.5790926,6.1470733 7.1932032,6.397002 7.1503582,6.5541 H 5.4579839 L 5.415139,6.397002 5.7364759,6.239904 Q 5.9649821,6.1327917 5.9578413,5.961412 L 5.8007433,2.4624102 4.4297058,6.4112836 3.986975,6.5541 3.8512994,6.4826918 2.515966,2.469551 2.3160231,6.1470733 2.8587254,6.397002 2.8158805,6.5541 H 1.3163083 L 1.2734634,6.397002 1.6662085,6.2327631 Q 1.844729,6.1542141 1.8732922,6.0756651 1.8804331,6.039961 1.8875739,5.961412 L 2.0660944,2.3195938 1.4519839,2.0696651 1.4948288,1.912567 H 2.9372744 L 3.0301051,1.9839752 4.2369037,5.7114833 5.5008288,1.912567 H 6.9861194 L 7.0289643,2.0696651 6.6362192,2.2339039 Q 6.407713,2.3267346 6.4148538,2.5052551 Z"
         style="font-family:Fenix;-inkscape-font-specification:'Fenix, Normal'"
         id="path1875" />
    </g>
  </g>
</svg>
