<?xml version="1.0" encoding="UTF-8" standalone="no"?>
<!-- Created with Inkscape (http://www.inkscape.org/) -->

<svg
   width="32"
   height="32"
   viewBox="0 0 32 32"
   version="1.1"
   id="svg5"
   inkscape:version="1.2 (dc2aedaf03, 2022-05-15)"
   sodipodi:docname="m.svg"
   inkscape:export-filename="martindiaz.dev/assets/favicon/favicon2.svg"
   inkscape:export-xdpi="177.23055"
   inkscape:export-ydpi="177.23055"
   xmlns:inkscape="http://www.inkscape.org/namespaces/inkscape"
   xmlns:sodipodi="http://sodipodi.sourceforge.net/DTD/sodipodi-0.dtd"
   xmlns="http://www.w3.org/2000/svg"
   xmlns:svg="http://www.w3.org/2000/svg">
  <sodipodi:namedview
     id="namedview7"
     pagecolor="#1f2937"
     bordercolor="#eeeeee"
     borderopacity="1"
     inkscape:showpageshadow="0"
     inkscape:pageopacity="1"
     inkscape:pagecheckerboard="0"
     inkscape:deskcolor="#505050"
     inkscape:document-units="px"
     showgrid="false"
     inkscape:zoom="18.9375"
     inkscape:cx="11.194719"
     inkscape:cy="13.254125"
     inkscape:window-width="1680"
     inkscape:window-height="1013"
     inkscape:window-x="0"
     inkscape:window-y="0"
     inkscape:window-maximized="1"
     inkscape:current-layer="layer1" />
  <defs
     id="defs2" />
  <g
     inkscape:label="Layer 1"
     inkscape:groupmode="layer"
     id="layer1">
    <g
       aria-label="M"
       id="text7492"
       style="font-size:26.6667px;fill:#9ca3af">
      <path
         d="m 24.146677,9.5466588 0.613333,13.6000172 2.293337,0.933334 -0.160001,0.586667 h -6.320008 l -0.16,-0.586667 1.200002,-0.586667 q 0.853334,-0.400001 0.826667,-1.040002 L 21.853341,9.3866586 16.733335,24.133343 15.079999,24.666677 14.573332,24.40001 9.5866584,9.4133253 8.8399908,23.146676 10.866661,24.08001 10.70666,24.666677 H 5.1066527 L 4.9466525,24.08001 6.4133211,23.466676 q 0.6666675,-0.293334 0.7733343,-0.586667 0.026667,-0.133334 0.053333,-0.426668 L 7.9066563,8.8533246 5.6133201,7.91999 5.7733203,7.3333226 h 5.3866737 l 0.346667,0.266667 4.506673,13.9200174 4.720005,-14.1866844 h 5.546673 L 26.440014,7.91999 24.973344,8.5333242 Q 24.12001,8.8799913 24.146677,9.5466588 Z"
         style="font-family:Fenix;-inkscape-font-specification:Fenix;text-align:center;text-anchor:middle"
         id="path557" />
    </g>
  </g>
</svg>
