<svg xmlns="http://www.w3.org/2000/svg" width="256" height="256" viewBox="0 0 100 100"><rect width="100" height="100" rx="20" fill="#1f2937"></rect><path fill="#fff" d="M77.49 28.22L77.49 28.22L79.56 74.12L87.30 77.27L86.77 79.25L65.44 79.25L64.89 77.27L68.94 75.29Q71.83 73.94 71.73 71.78L71.73 71.78L69.75 27.68L52.47 77.45L46.89 79.25L45.19 78.35L28.36 27.77L25.84 74.12L32.67 77.27L32.13 79.25L13.23 79.25L12.70 77.27L17.64 75.20Q19.89 74.21 20.25 73.22L20.25 73.22Q20.34 72.77 20.44 71.78L20.44 71.78L22.69 25.88L14.95 22.73L15.48 20.75L33.66 20.75L34.84 21.65L50.05 68.63L65.97 20.75L84.69 20.75L85.23 22.73L80.28 24.80Q77.41 25.97 77.49 28.22Z"></path></svg>